<svg xmlns="http://www.w3.org/2000/svg" viewBox="0 0 173.88 100.78"><defs><style>.cls-1{fill:#005dff;}</style></defs><g id="Capa_3" data-name="Capa 3"><path class="cls-1" d="M247.56,249a59.53,59.53,0,0,0-36,12.06,8,8,0,0,0-.75,12l0,0a7.93,7.93,0,0,0,10.37.76,43.76,43.76,0,0,1,57,3.71,7.9,7.9,0,0,0,11.05-.22h0a8,8,0,0,0-.09-11.4A59.6,59.6,0,0,0,247.56,249Z" transform="translate(-163.07 -178.88)"/></g><g id="Capa_2" data-name="Capa 2"><path class="cls-1" d="M247.78,214.17a89.91,89.91,0,0,0-58.2,21.31,7.74,7.74,0,0,0-.55,11.41l.41.41a7.77,7.77,0,0,0,10.55.33,74.1,74.1,0,0,1,99.83,3.88,7.64,7.64,0,0,0,10.74-.13l.4-.4a7.65,7.65,0,0,0,.07-10.83A90,90,0,0,0,247.78,214.17Z" transform="translate(-163.07 -178.88)"/></g><g id="Capa_1" data-name="Capa 1"><path class="cls-1" d="M247.83,178.88A123.46,123.46,0,0,0,165.71,210a8,8,0,0,0-.28,11.58h0a8,8,0,0,0,11,.27,107.74,107.74,0,0,1,146.87,3.87,8,8,0,0,0,11.29,0h0a8,8,0,0,0,0-11.28A123.5,123.5,0,0,0,247.83,178.88Z" transform="translate(-163.07 -178.88)"/></g></svg>