<svg xmlns="http://www.w3.org/2000/svg" width="100%" height="100%" viewBox="0 0 31.893 31.956">
<path d="M177.92,1h24.653a3.473,3.473,0,0,1,3.058,1.706,4.194,4.194,0,0,1,.562,2.164V29.086a3.808,3.808,0,0,1-1.581,3.225,3.447,3.447,0,0,1-2.039.645H177.92a3.473,3.473,0,0,1-3.058-1.706,4.194,4.194,0,0,1-.562-2.164V4.849a3.808,3.808,0,0,1,1.581-3.225A3.431,3.431,0,0,1,177.92,1ZM181.6,12.338V22.387a3.371,3.371,0,0,0,.4,1.831,2.892,2.892,0,0,0,.645.853,3.336,3.336,0,0,0,2.351.936h10.589a3.346,3.346,0,0,0,3.391-3.516v-10.3a3.558,3.558,0,0,0-.6-2.122,3.232,3.232,0,0,0-1.082-.957,3,3,0,0,0-1.623-.458H184.993a3.258,3.258,0,0,0-2.58,1.248,3.3,3.3,0,0,0-.687,1.436A2.349,2.349,0,0,0,181.6,12.338Zm4.223,3.225c.021,0,.021,0,.021.021a4.781,4.781,0,0,0,1.248,5.305,4.684,4.684,0,0,0,3.058,1.207h.208a4.653,4.653,0,0,0,3-1.165,5.821,5.821,0,0,0,.749-.811,4.651,4.651,0,0,0,.915-2.7v-.146a4.872,4.872,0,0,0-.333-1.727h2.559c.021,0,.021,0,.021.021V22.7a1.657,1.657,0,0,1-.791,1.352,1.934,1.934,0,0,1-1.082.25H185.2a1.957,1.957,0,0,1-1.165-.291,1.587,1.587,0,0,1-.416-.354,1.646,1.646,0,0,1-.333-1V15.584l.021-.021Zm4.348-1.269h.166a3.048,3.048,0,0,1-.083,6.1,3.021,3.021,0,0,1-2.309-1.061,3.139,3.139,0,0,1-.728-1.976,3.1,3.1,0,0,1,.853-2.122A2.871,2.871,0,0,1,190.174,14.294Zm6.741-3.641.021.021v2.892c0,.021,0,.021-.021.021h-.354c-.541,0-1.394,0-2.559.021V10.674h.021C194.376,10.674,195.354,10.674,196.914,10.653Z" transform="translate(-174.3 -1)" fill="#fff"/></svg>