<svg xmlns="http://www.w3.org/2000/svg" width="100%" height="100%" viewBox="0 0 31.914 31.956"><path d="M3.62,0H28.294a3.473,3.473,0,0,1,3.058,1.706,4.194,4.194,0,0,1,.562,2.164V28.086a3.808,3.808,0,0,1-1.581,3.225,3.447,3.447,0,0,1-2.039.645H3.62A3.473,3.473,0,0,1,.562,30.25,4.194,4.194,0,0,1,0,28.086V3.849A3.745,3.745,0,0,1,1.581.645,3.353,3.353,0,0,1,3.62,0ZM6.8,8.592a2.248,2.248,0,0,0,.811,1.748,2.325,2.325,0,0,0,1.5.541,2.235,2.235,0,0,0,1.789-.874,2.337,2.337,0,0,0,.479-1.436,2.274,2.274,0,0,0-1.019-1.914A2.4,2.4,0,0,0,9.092,6.3a2.248,2.248,0,0,0-1.748.811A2.311,2.311,0,0,0,6.8,8.592Zm.312,4.036V25.34h3.974V12.628Zm10.277,1.748h-.021c-.021,0-.021,0-.021-.021V12.628H13.564V25.34h3.953V19.431a6.748,6.748,0,0,1,.25-2.268,1.985,1.985,0,0,1,2.06-1.373h.146a1.733,1.733,0,0,1,1.685,1.1,2.516,2.516,0,0,1,.208.811,14.789,14.789,0,0,1,.062,1.872V25.34H25.9V18.245c0-2.164-.374-3.682-1.123-4.577A4.431,4.431,0,0,0,21.137,12.3a4.395,4.395,0,0,0-2.829,1,3.667,3.667,0,0,0-.6.645A1.425,1.425,0,0,0,17.392,14.376Z" transform="translate(0)" fill="#fff"/></svg>