<svg xmlns="http://www.w3.org/2000/svg" width="100%" height="100%" viewBox="0 0 77.5 48.212">
  <g id="Capa_2" data-name="Capa 2" transform="translate(-0.012)">
    <g id="Capa_1" data-name="Capa 1" transform="translate(0.012 0)">
      <path id="Path_78" data-name="Path 78" d="M37.784,0A55.028,55.028,0,0,0,1.169,13.931a3.576,3.576,0,0,0-.139,5.131h0a3.576,3.576,0,0,0,4.9,0,48.062,48.062,0,0,1,65.5,1.834,3.552,3.552,0,0,0,5.038,0h0a3.529,3.529,0,0,0,0-5.015A55,55,0,0,0,37.784,0Z" transform="translate(-0.012 0)" fill="#005dff"/>
      <path id="Path_79" data-name="Path 79" d="M31.768,7.48a40.1,40.1,0,0,0-25.958,9.5,3.436,3.436,0,0,0-.232,5.085l.186.186a3.46,3.46,0,0,0,4.644.139,33.063,33.063,0,0,1,44.51,1.741,3.39,3.39,0,0,0,4.783,0l.186-.163a3.413,3.413,0,0,0,0-4.829A40.1,40.1,0,0,0,31.768,7.48Z" transform="translate(6.005 9.887)" fill="#005dff"/>
      <path id="Path_80" data-name="Path 80" d="M26.15,14.87a26.492,26.492,0,0,0-16.067,5.387,3.506,3.506,0,0,0-.325,5.317h0A3.529,3.529,0,0,0,14.4,25.9a19.55,19.55,0,0,1,25.54,1.649,3.506,3.506,0,0,0,4.922,0h0a3.552,3.552,0,0,0,0-5.085A26.585,26.585,0,0,0,26.15,14.87Z" transform="translate(11.46 19.656)" fill="#005dff"/>
    </g>
  </g>
</svg>
