<svg xmlns="http://www.w3.org/2000/svg" width="100%" height="100%" viewBox="0 0 79.501 58">
  <g id="_7x24h-svgrepo-com" data-name="7x24h-svgrepo-com" transform="translate(-7.2 -161.4)">
    <path id="Path_46" data-name="Path 46" d="M413.683,295.308H370.712A3.316,3.316,0,0,1,367.4,292V269.212a3.316,3.316,0,0,1,3.312-3.312h42.971a3.316,3.316,0,0,1,3.312,3.312V292A3.309,3.309,0,0,1,413.683,295.308Z" transform="translate(-330.302 -95.694)" fill="#fff"/>
    <path id="Path_48" data-name="Path 48" d="M431.7,374.34h5.653a18.225,18.225,0,0,0-2.8,5,16.745,16.745,0,0,0-1.112,5.487h2.4a15.182,15.182,0,0,1,.564-3.9,17.116,17.116,0,0,1,1.66-4.117,13.049,13.049,0,0,1,2.142-2.972v-1.8H431.7Zm18.925,1.087H447.7l-1.751,2.59-1.66-2.59h-3.038l3.254,4.557-3.395,4.839h2.913l1.926-2.905,1.917,2.905h3.046l-3.47-4.939Zm6.69,4.964a16.614,16.614,0,0,0,1.627-1.652,6.655,6.655,0,0,0,1-1.66,4.549,4.549,0,0,0,.315-1.668,3.388,3.388,0,0,0-1.1-2.573,4.217,4.217,0,0,0-3.013-1.038,4.659,4.659,0,0,0-2.922.9,4.033,4.033,0,0,0-1.386,2.947l2.474.249a2.445,2.445,0,0,1,.531-1.56,1.651,1.651,0,0,1,1.237-.473,1.676,1.676,0,0,1,1.237.448,1.725,1.725,0,0,1,.448,1.278,2.734,2.734,0,0,1-.515,1.519,17.759,17.759,0,0,1-2.059,2.125,16.625,16.625,0,0,0-2.8,3.113,5.937,5.937,0,0,0-.847,2.482h8.715v-2.307h-4.939a4.408,4.408,0,0,1,.506-.689C456.037,381.594,456.535,381.113,457.315,380.391Zm11.9-8.591h-2.092l-5.628,8.234v2.175h5.312v2.606h2.407v-2.606h1.61v-2.175h-1.61Zm-2.407,8.234h-2.98l2.98-4.432ZM448.5,396.22a.787.787,0,0,0-1.062.3c-.125.216-.249.44-.382.656a.774.774,0,0,0,.664,1.179.765.765,0,0,0,.664-.374c.133-.224.274-.457.407-.689a.781.781,0,0,0-.29-1.071Zm-2.05,3.3a.77.77,0,0,0-1.087.141c-.149.2-.307.4-.473.589a.778.778,0,0,0,.108,1.1.769.769,0,0,0,.49.174.805.805,0,0,0,.606-.282c.166-.208.332-.415.5-.631A.772.772,0,0,0,446.45,399.515Zm-3.6,2.963L442.3,403a.776.776,0,0,0,.531,1.345.747.747,0,0,0,.523-.208c.2-.183.39-.365.581-.548a.774.774,0,0,0,.017-1.1A.784.784,0,0,0,442.847,402.478Zm7.213-9.819a.772.772,0,0,0-1,.44c-.091.232-.183.473-.282.7a.778.778,0,0,0,.415,1.021.765.765,0,0,0,.3.058.777.777,0,0,0,.714-.473c.1-.249.208-.5.3-.739A.772.772,0,0,0,450.06,392.659Zm-10.093,12.26c-.2.149-.407.3-.614.44a.779.779,0,0,0,.88,1.287c.216-.149.44-.307.656-.465a.781.781,0,0,0-.921-1.262Z" transform="translate(-389.265 -192.507)" fill="#005bff"/>
    <path id="Path_49" data-name="Path 49" d="M83.58,170.138H55.791a1.569,1.569,0,0,0-.506-1.254A28.62,28.62,0,0,0,15.633,169.9a29.073,29.073,0,0,0,9.147,47.221,28.665,28.665,0,0,0,16.85,1.723,1.615,1.615,0,0,0,.589-.251c.066,0,.141-.008.208-.008a7.909,7.909,0,0,0,5.727-2.768c.133-.151.266-.309.39-.477.033-.042.066-.084.1-.134a9.27,9.27,0,0,0,1.394-2.8c.224-.719,1.013-4.474-4.864-8.6-4.889-3.437-7.57-1.229-8.865-.167-.058.05-.133.109-.2.159a18.838,18.838,0,0,1-2.847-3.454,13.2,13.2,0,0,1-2.125-4.181,4.727,4.727,0,0,0,2.449-1.681c1-1.263,1.984-3.587,1.029-7.526A12.775,12.775,0,0,0,31.711,181a4.786,4.786,0,0,0-2.8-1.58,9.824,9.824,0,0,0-6.889,2.4c-2.05,1.89-3.055,4.674-3,8.27a29.083,29.083,0,0,0,3.229,12.627,39.19,39.19,0,0,0,4.474,6.882,30.848,30.848,0,0,0,7.686,6.606,25.87,25.87,0,0,1,1.577-51.678,25.527,25.527,0,0,1,15.962,5.6H40.211a3.125,3.125,0,0,0-3.113,3.136V196.63a3.125,3.125,0,0,0,3.113,3.136H83.589A3.125,3.125,0,0,0,86.7,196.63V173.274A3.138,3.138,0,0,0,83.58,170.138ZM29.146,207.626c-4.565-5.72-6.923-11.64-7.014-17.594-.042-2.626.614-4.591,1.934-5.854a6.645,6.645,0,0,1,4.4-1.647h.1c.241.084,1.967.8,3.03,5.168.606,2.475.183,3.863-.266,4.582a1.9,1.9,0,0,1-.913.828,2.3,2.3,0,0,0-1.726.753,2.923,2.923,0,0,0-.664,2.1c-.05,2.668,3.436,7.518,5.271,9.441,1.154,1.213,2,1.714,2.839,1.689a3.556,3.556,0,0,0,2.133-1.045,3.6,3.6,0,0,1,1.726-.962,5.169,5.169,0,0,1,3.395,1.271c3.818,2.684,3.719,4.733,3.669,5.067l-.025.117a5.357,5.357,0,0,1-4.773,3.888c-4.989.276-10.99-5.134-13.115-7.8Zm55.994-10.988a1.561,1.561,0,0,1-1.552,1.564H40.211a1.561,1.561,0,0,1-1.552-1.564V173.274a1.561,1.561,0,0,1,1.552-1.564H83.589a1.561,1.561,0,0,1,1.552,1.564v23.364Z" fill="#fff"/>
  </g>
</svg>
