<svg id="bunge" xmlns="http://www.w3.org/2000/svg" width="100%" height="100%" viewBox="0 0 147.232 33.702">
  <path id="Path_1" data-name="Path 1" d="M61.106,5.176c1.044,0,2.093-.018,3.1.045.7.045,1.413.106,2.1.162a16.33,16.33,0,0,1,1.763.223c.584.111,1.163.178,1.737.315a21.609,21.609,0,0,1,2.746.754c.3.119.608.227.9.358.109.045.215.088.322.135-.131.276-.26.549-.391.821-.283.614-.551,1.233-.788,1.861-.1.262-.195.516-.291.78-.143-.115-.3-.25-.438-.362-.276-.223-.541-.457-.827-.653a11.913,11.913,0,0,0-3.033-1.548,16.827,16.827,0,0,0-2.666-.709C60.1,6.514,53.723,7.343,50.854,11.7a8.193,8.193,0,0,0-1.085,2.515,6.087,6.087,0,0,0-.16.8,13.059,13.059,0,0,0-.127,1.886,9.828,9.828,0,0,0,.721,3.6,8.679,8.679,0,0,0,1.739,2.6,10.8,10.8,0,0,0,4.823,2.642,22.486,22.486,0,0,0,6.019.684c.934-.027,1.638-.076,2.163-.131.33-.035,1.438-.2,1.741-.258.229-.049.459-.1.688-.152.393-.092.795-.2,1.18-.315.088-.031.354-.133.354-.133s0-.328,0-.444V23.73c0-1.634.02-3.256.02-4.878-.459,0-.842.01-1.288.051-.233.01-.506.02-.768.051-.426.035-.764.066-1.245.111a6.677,6.677,0,0,0,.131-1.218,5.246,5.246,0,0,0-.154-1.194s.592.072.827.084c.354.023.75.07,1.1.076.594.043.973.053,1.651.051h4.3v9.375c0,.119-.008.526-.008.526s-.291.082-.391.106c-.4.09-.8.182-1.2.276-1.495.328-3.016.575-4.575.772a46.623,46.623,0,0,1-6.043.383,29.394,29.394,0,0,1-5.351-.4,20.3,20.3,0,0,1-2.373-.508A19.974,19.974,0,0,1,50.6,26.273a12.262,12.262,0,0,1-3.481-2.509,9.749,9.749,0,0,1-2.052-3.379,10.419,10.419,0,0,1-.58-4,10.882,10.882,0,0,1,.483-2.787,8.182,8.182,0,0,1,.5-1.194c1.464-2.935,4.3-4.739,7.241-5.8a20.911,20.911,0,0,1,2.625-.752c.614-.133,1.8-.342,2.773-.455s2.562-.213,3-.231Z" transform="translate(46.599 5.386)" fill="#fff"/>
  <path id="Path_2" data-name="Path 2" d="M37.387,5.386a14.521,14.521,0,0,0,1.7.1,10.339,10.339,0,0,0,1.507-.111s-.016,5.738-.016,8.607V17.27a16.852,16.852,0,0,1-.174,2.99,9.292,9.292,0,0,1-.9,2.543A7.77,7.77,0,0,1,37.958,24.8a10.28,10.28,0,0,1-2.791,1.849,11.082,11.082,0,0,1-2.228.79,22.348,22.348,0,0,1-4.7.655c-.7.02-1.454,0-2.14-.018a19.018,19.018,0,0,1-6.141-1.065c-.526-.209-1.022-.44-1.519-.69a7.67,7.67,0,0,1-1.8-1.241c-1.732-1.675-2.275-3.7-2.353-6.2,0-.827,0-1.651,0-2.484V5.4s1.073.094,2.353.094,2.117-.1,2.242-.1V16.51c0,.664,0,1.317,0,1.986.059,1.933.5,4.055,1.851,5.324,1.95,1.831,4.888,2.1,7.778,2.1a14.905,14.905,0,0,0,1.9-.125,15.042,15.042,0,0,0,2.015-.461A7,7,0,0,0,35.677,23.2a7.272,7.272,0,0,0,1.216-2.251,15.029,15.029,0,0,0,.494-4.7V5.386Z" transform="translate(14.968 5.603)" fill="#fff"/>
  <path id="Path_3" data-name="Path 3" d="M52.637,5.391a12.657,12.657,0,0,0,1.651.1,9.954,9.954,0,0,0,1.542-.1v22.26l-2.253.006s-.1-.09-.166-.149c-.276-.229-.545-.469-.821-.713-.281-.227-.555-.455-.84-.69-.754-.592-1.507-1.192-2.267-1.78C45.631,21.3,41.775,18.3,37.919,15.272q-1.883-1.468-3.766-2.939c-.369-.283-.737-.575-1.106-.868-.047-.035-.207-.178-.254-.178,0-.029.006-.023-.023-.023v16.4a11.392,11.392,0,0,0-1.513-.115,15.059,15.059,0,0,0-1.675.115V5.391h2.57s.227.176.324.254l.868.678,3.418,2.668q5.36,4.184,10.727,8.376,1.929,1.505,3.862,3.01c.127.09,1.268.989,1.268.993h.018V5.391Z" transform="translate(30.997 5.614)" fill="#fff"/>
  <path id="Path_4" data-name="Path 4" d="M60.8,5.39H83.25A9.928,9.928,0,0,0,83.1,6.78a9.989,9.989,0,0,0,.17,1.35c-.473-.061-.95-.123-1.427-.182-1.493-.166-3.334-.217-3.647-.219-1.143-.035-2.345-.018-3.506-.018l-.42-.02c-1.192,0-2.419,0-3.586-.02h-5.29V14.64H78.528c.164-.006,1.171-.039,1.3-.039s2.277-.131,2.433-.131a6.186,6.186,0,0,0-.147,1.229,10.346,10.346,0,0,0,.127,1.214c-.426-.012-.795-.037-1.225-.063-.756-.039-1.423-.074-2.279-.1l-3.336,0H65.393v8.636h5.122c.491,0,1.517-.02,2.036-.02.481,0,1.188-.006,1.655-.02.483,0,1.085-.023,1.427-.023.508,0,.973-.02,1.28-.02s1.732-.029,2.142-.045c.143,0,.52-.023.67-.023.184,0,1.292-.059,1.763-.109s1.8-.184,1.868-.192.111-.012.168-.02a7.634,7.634,0,0,0-.147,1.419,5.922,5.922,0,0,0,.147,1.294H60.8V5.39Z" transform="translate(63.709 5.613)" fill="#fff"/>
  <path id="Path_5" data-name="Path 5" d="M5.273,16.662v8.752h8.853a9.535,9.535,0,0,0,2.758-.438,6.081,6.081,0,0,0,2.081-1.048,3.8,3.8,0,0,0,1.323-1.821,4.044,4.044,0,0,0-.444-3.262,3.945,3.945,0,0,0-1.294-1.087,9.644,9.644,0,0,0-2.111-.719,12.335,12.335,0,0,0-1.872-.258c-1.233-.092-2.513-.119-3.817-.119H5.273Zm0-9.066v7.053l3.481,0s1.057-.02,1.407-.02c1.182,0,2.689-.088,3.5-.17a14.3,14.3,0,0,0,2.715-.453,7.23,7.23,0,0,0,1.808-.885A3.034,3.034,0,0,0,19.6,10.431a2.34,2.34,0,0,0-.565-1.524,2.9,2.9,0,0,0-1.178-.77A14.226,14.226,0,0,0,13.037,7.6c-.874.006-1.866,0-2.791,0H5.273ZM0,5.4l14.835,0c2.386.076,4.958.289,6.875,1.3a4.142,4.142,0,0,1,1.649,1.6,4.407,4.407,0,0,1-.4,4.393,7.658,7.658,0,0,1-2.836,2.189c-.416.2-.989.377-1.429.553-.121.043-.233.084-.4.135v.012c.162.027.326.043.487.07.459.061,1.288.211,1.716.307,2.175.516,4.554,1.87,4.575,5.075a5.932,5.932,0,0,1-.678,2.8,6.181,6.181,0,0,1-2.877,2.552c-2.769,1.419-8.052,1.249-12.2,1.249H0V5.4Z" transform="translate(0 5.614)" fill="#fff"/>
  <path id="Path_6" data-name="Path 6" d="M17.235,5.389a8.23,8.23,0,0,0,.919,1.835H31.877A8.408,8.408,0,0,0,32.8,5.389Z" transform="translate(18.06 5.612)" fill="#fff"/>
  <path id="Path_7" data-name="Path 7" d="M18.5,7.179a8.25,8.25,0,0,0,10.374,0H18.5Z" transform="translate(19.386 7.488)" fill="#fff"/>
  <path id="Path_8" data-name="Path 8" d="M17.005,4.515a8.492,8.492,0,0,0,.051.917h16.4a8.245,8.245,0,0,0,0-1.835h-16.4A8.491,8.491,0,0,0,17.005,4.515Z" transform="translate(17.819 3.735)" fill="#fff"/>
  <path id="Path_9" data-name="Path 9" d="M18.154,1.808a8.172,8.172,0,0,0-.919,1.833H32.8a8.348,8.348,0,0,0-.919-1.833H18.154Z" transform="translate(18.06 1.86)" fill="#fff"/>
  <path id="Path_10" data-name="Path 10" d="M28.874,1.852a8.247,8.247,0,0,0-10.372,0H28.874Z" transform="translate(19.387 -0.017)" fill="#fff"/>
</svg>
