<svg xmlns="http://www.w3.org/2000/svg" width="100%" height="100%" viewBox="0 0 214.687 25.729">
  <g id="Group_52" data-name="Group 52" transform="translate(-0.019 0.04)">
    <path id="Path_70" data-name="Path 70" d="M48.2,16.7V11.2c0-3.5.9-6.6,3.8-9a7.1,7.1,0,0,1,5.1-2A12.052,12.052,0,0,0,59,.2c2.2-.2,4,.8,5.7,2,.3.2.5.4.9.1C67.4.6,69.6.2,72.1.1c4.2-.1,7,2,8.9,5.5A8.608,8.608,0,0,1,82,10V23.9c0,.9-.3,1.2-1.2,1.2a29.437,29.437,0,0,0-4.2,0c-.9,0-1.2-.3-1.2-1.2,0-4.4.1-8.9,0-13.3,0-2.6-1.6-4.3-3.8-4.2a3.538,3.538,0,0,0-3.1,3.4V23.9c0,.8-.3,1.2-1.1,1.1-1.4,0-2.9-.1-4.3,0-.9,0-1.1-.3-1.1-1.1V10.2c0-1.8-1.9-4.1-3.8-3.9a3.852,3.852,0,0,0-3.6,3.9q-.15,6.75,0,13.5c0,1-.2,1.4-1.3,1.3a28.054,28.054,0,0,0-4.1,0c-.9,0-1.2-.3-1.2-1.2C48.2,21.5,48.2,19.1,48.2,16.7Z" fill="#fff"/>
    <path id="Path_71" data-name="Path 71" d="M132.1,16.2c0-2.4-.1-4.9,0-7.3A9.474,9.474,0,0,1,138.3.7c3.5-1.2,7.1-1.1,10.2,1.5.4.3.6.2.9-.1A8.625,8.625,0,0,1,155.2,0c2.1,0,4.2.1,6,1.4A10.383,10.383,0,0,1,165.4,7a23.55,23.55,0,0,1,.5,5.9V23.6c0,1.2-.4,1.4-1.5,1.4a22.854,22.854,0,0,0-3.7,0c-1,.1-1.4-.2-1.4-1.3q.15-6.75,0-13.5a3.845,3.845,0,0,0-4-3.8,3.686,3.686,0,0,0-2.7,2A7.61,7.61,0,0,0,152,12V24c0,.8-.2,1.1-1.1,1.1a28.054,28.054,0,0,0-4.1,0c-1,.1-1.4-.3-1.4-1.3.1-4.6,0-9.2,0-13.8a3.424,3.424,0,0,0-3.2-3.5,3.625,3.625,0,0,0-3.7,3.4c-.1,4.6-.1,9.2-.1,13.8,0,1.2-.3,1.6-1.6,1.5-1.4-.1-2.8,0-4.2,0-.6,0-.8-.2-.8-.8.3-2.8.2-5.5.3-8.2Z" fill="#fff"/>
    <path id="Path_72" data-name="Path 72" d="M191.5,12.8V1.4c0-.7.2-.8.8-.8,5.3.1,10.5-.1,15.8.1,2.3.1,3.9,1.6,5.1,3.3a8.352,8.352,0,0,1-3.8,12.6c-.4.1-1,.2-1,.6,0,.3.5.7.8,1,.8.6,1.9.3,2.8.4,2.4.1,2-.3,2.1,2a5.244,5.244,0,0,0,.4,3,.915.915,0,0,1-.9,1.4c-2.4,0-4.9.4-7.1-1a10.04,10.04,0,0,1-4.4-4.7c-1-2.6-1.8-5.2-2.9-7.7-.3-.7-.1-1,.7-1h6.2a1.9,1.9,0,0,0,2-1.2,1.71,1.71,0,0,0-.5-2,1.575,1.575,0,0,0-1.3-.4H199c-.9,0-1.1.3-1.1,1.1V23.6c0,1.1-.2,1.5-1.4,1.4-1.4-.1-2.8,0-4.2,0-.6,0-1,0-1-.9C191.5,20.4,191.5,16.6,191.5,12.8Z" fill="#fff"/>
    <path id="Path_73" data-name="Path 73" d="M107.4,8.3V2c0-1,.4-1.3,1.3-1.3,1.5.1,3,0,4.4,0,.6,0,.8.1.8.8q-.15,5.85,0,11.7a5.687,5.687,0,0,0,3.3,5.5c2.7,1.2,4.9,0,6.2-2.2a9.116,9.116,0,0,0,1-4.6V1.7c0-.9.3-1.2,1.2-1.2,1.2.1,2.4,0,3.6,0,1.6,0,1.5,0,1.5,1.5V13.7c0,4.6-2.3,7.8-6,10.1a10.706,10.706,0,0,1-13-1.3,13.69,13.69,0,0,1-3.3-4.9C106.9,14.5,107.6,11.1,107.4,8.3Z" fill="#fff"/>
    <path id="Path_74" data-name="Path 74" d="M14.4.6h5c.8,0,1,.3,1,1,0,1.4-.1,2.9,0,4.3,0,.9-.4,1.2-1.2,1.2-2.3,0-4.6.1-6.9,0A5.011,5.011,0,0,0,7,10.5a5.754,5.754,0,0,0,3.8,8,11.329,11.329,0,0,0,2.6.1h5.9c.7,0,1.1.2,1.1,1-.1,1.5,0,3,0,4.4,0,.6-.1,1.1-.8,1-3.3-.1-6.7.3-10-.2A10.912,10.912,0,0,1,2.4,20C-.6,16.1-.4,11.9,1,7.7,2,4.8,4.4,2.9,7.2,1.5,9.7.3,12.2.8,14.4.6Z" fill="#fff"/>
    <path id="Path_75" data-name="Path 75" d="M190.5,12.9a12.764,12.764,0,0,0-4-9.7A11.186,11.186,0,0,0,174.4.9a11.768,11.768,0,0,0-7.2,8.8c-.5,2.6-.1,5.2-.2,7.3v7.1c0,.7.2,1,1,1h4.7c.7,0,.9-.3.9-.9V20.6c0-.6.1-.9.9-.9h8.6c.7,0,.9.3.9.9v3.5c0,.8.3,1.1,1,1.1,1.4,0,2.9-.1,4.3,0,1,0,1.3-.3,1.3-1.3C190.5,20.2,190.5,16.5,190.5,12.9Zm-6.6-.3c-.1.6-.4.6-.8.6h-8.6c-.5,0-.8,0-.9-.7-.1-2.9,2.5-6.2,5.4-6A5.571,5.571,0,0,1,183.9,12.6Z" fill="#fff"/>
    <path id="Path_76" data-name="Path 76" d="M35.7.1C27-.7,22.1,6.7,21.7,12.3c-.5,7,6.1,14.2,12.5,13.3,7.2,1,12.6-6.6,12.8-12C47.2,6.2,41.1.6,35.7.1ZM34.4,19.4c-3.5,0-6.1-3.2-6.2-6.5-.1-3.2,3.1-6.4,6-6.4,2.8,0,6.4,2.7,6.1,6.5C40.7,16.3,37.3,19.4,34.4,19.4Z" fill="#fff"/>
    <path id="Path_77" data-name="Path 77" d="M106,9.1A9.29,9.29,0,0,0,97.5.7C93.2.5,88.9.7,84.6.6c-1,0-1.2.4-1.2,1.3V24c0,.8.2,1.1,1,1a30.854,30.854,0,0,1,4.3,0c.9,0,1.2-.3,1.2-1.2a28.053,28.053,0,0,1,0-2.9c0-.7.2-1,1-1h5.6a9.436,9.436,0,0,0,7.8-3.8C105.9,14.1,106.1,11.7,106,9.1Zm-9.4,4.5c-2,.1-4,0-6,0-.6,0-.8-.3-.7-.8V8.1c0-.7.3-1,1-1h5.4a3.356,3.356,0,0,1,3.3,2.7C99.6,12,98.5,13.4,96.6,13.6Z" fill="#fff"/>
  </g>
</svg>
