<svg xmlns="http://www.w3.org/2000/svg" width="100%" height="100%" viewBox="0 0 58.617 58">
  <g id="delivery-cart-svgrepo-com" transform="translate(0 -1.946)">
    <path id="Path_81" data-name="Path 81" d="M58.537,64.5a1.981,1.981,0,0,0-2.458-1.346L26.371,71.837A6.191,6.191,0,0,0,21.589,69.2L10.115,29.089a1.981,1.981,0,0,0-2.45-1.36L1.437,29.511a1.981,1.981,0,0,0,1.09,3.81L6.85,32.084,17.78,70.291a6.192,6.192,0,1,0,9.705,5.349l29.705-8.683A1.982,1.982,0,0,0,58.537,64.5ZM21.3,77.616a2.231,2.231,0,1,1,2.231-2.231A2.234,2.234,0,0,1,21.3,77.616Z" transform="translate(0 -21.632)" fill="#fff"/>
    <path id="Path_82" data-name="Path 82" d="M87.609,26.166a1.187,1.187,0,0,0,1.468.819l24.395-6.932a1.189,1.189,0,0,0,.818-1.469L109.808,2.81a1.186,1.186,0,0,0-1.468-.819L83.945,8.924a1.189,1.189,0,0,0-.819,1.469Zm6.118-14,7.794-2.215a1.189,1.189,0,0,1,.65,2.287l-7.794,2.215a1.189,1.189,0,0,1-.65-2.287Z" transform="translate(-69.913 0)" fill="#fff"/>
    <path id="Path_83" data-name="Path 83" d="M143.826,126.876l-24.395,6.932a1.189,1.189,0,0,0-.819,1.468l4.482,15.774a1.186,1.186,0,0,0,1.468.818l24.4-6.932a1.189,1.189,0,0,0,.819-1.468l-4.482-15.774a1.186,1.186,0,0,0-1.469-.818Zm-5.456,9.677a1.181,1.181,0,0,1-.713.565l-7.794,2.215a1.186,1.186,0,0,1-1.468-.819,1.189,1.189,0,0,1,.819-1.469l7.794-2.215a1.189,1.189,0,0,1,1.363,1.722Z" transform="translate(-99.774 -105.09)" fill="#fff"/>
  </g>
</svg>
