<svg xmlns="http://www.w3.org/2000/svg" width="100%" height="100%" viewBox="0 0 31.893 31.956"><path d="M349.22,0h24.653a3.473,3.473,0,0,1,3.058,1.706,4.194,4.194,0,0,1,.562,2.164V28.086a3.808,3.808,0,0,1-1.581,3.225,3.447,3.447,0,0,1-2.039.645H349.22a3.473,3.473,0,0,1-3.058-1.706,4.194,4.194,0,0,1-.562-2.164V3.849A3.808,3.808,0,0,1,347.181.624,3.431,3.431,0,0,1,349.22,0Zm12.816,5.492a4.423,4.423,0,0,0-2.184,1.831,5.661,5.661,0,0,0-.728,2.871v2.975h-3.37v3.89h3.37V27.087h4.036V17.06h3.37c.021-.1.187-1.415.5-3.89h-3.87V10.964a4.028,4.028,0,0,1,.083-1.123,1.422,1.422,0,0,1,.166-.4,1.24,1.24,0,0,1,.728-.541,4.007,4.007,0,0,1,1.248-.146h1.789V5.284a26.514,26.514,0,0,0-2.933-.166h-.1A5.8,5.8,0,0,0,362.035,5.492Z" transform="translate(-345.6)" fill="#fff"/></svg>