<svg xmlns="http://www.w3.org/2000/svg" width="100%" height="100%" viewBox="0 0 138 55.047"><g transform="translate(0 -0.003)"><g transform="translate(0.251 18.712)"><path d="M.3,44.953V22.9H8.821c5.346,0,8.437,2.59,8.437,7.184a6.5,6.5,0,0,1-3.676,6.182l3.843,8.771H12.162L8.821,37.268H5.145v7.769H.3ZM5.145,33.008H8.821c2.088,0,3.341-1.086,3.341-2.924s-1.169-2.84-3.341-2.84H5.145Z" transform="translate(-0.3 -22.482)" fill="#005dff"/><path d="M25.2,22.9h4.845V36.349c0,2.757,1.5,4.344,4.26,4.344a3.958,3.958,0,0,0,4.344-4.344V22.9h4.762V36.683c0,5.263-3.592,8.688-9.105,8.688S25.2,42.03,25.2,36.683V22.9Z" transform="translate(-4.4 -22.482)" fill="#005dff"/><path d="M56.479,34.011c0,4.427,2.506,6.683,6.015,6.683,3.676,0,5.263-2,5.43-4.26H62.076v-4.26H72.434v12.7H68.258l-.251-2c-1.169,1.42-3.592,2.339-6.182,2.339-6.182,0-10.525-4.511-10.525-11.361,0-6.683,4.427-11.444,11.277-11.444,5.263,0,9.356,3.091,9.857,7.852h-5.1c-.585-2.339-2.59-3.341-4.929-3.341C58.568,26.994,56.479,29.751,56.479,34.011Z" transform="translate(-8.697 -22.4)" fill="#005dff"/><path d="M85.679,34.011c0,4.427,2.506,6.683,6.015,6.683,3.676,0,5.263-2,5.43-4.26H91.276v-4.26h10.358v12.7H97.458l-.251-2c-1.169,1.42-3.592,2.339-6.182,2.339-6.182,0-10.525-4.511-10.525-11.361,0-6.683,4.427-11.444,11.277-11.444,5.263,0,9.356,3.091,9.857,7.852h-5.1c-.585-2.339-2.59-3.341-4.929-3.341C87.684,26.994,85.679,29.751,85.679,34.011Z" transform="translate(-13.505 -22.4)" fill="#005dff"/><path d="M112.2,44.953V22.9h14.034v4.511h-9.189v4.344h8.186v4.26h-8.186v4.511h9.189v4.511H112.2Z" transform="translate(-18.724 -22.482)" fill="#005dff"/><path d="M134.3,44.953V22.9h8.521c5.346,0,8.437,2.59,8.437,7.184a6.5,6.5,0,0,1-3.676,6.182l3.926,8.771h-5.263L142.9,37.268h-3.759v7.769H134.3Zm4.845-11.946h3.676c2.088,0,3.341-1.086,3.341-2.924s-1.169-2.84-3.341-2.84h-3.676Z" transform="translate(-22.363 -22.482)" fill="#005dff"/><path d="M164.245,44.953H159.4V22.9h4.845Z" transform="translate(-26.496 -22.482)" fill="#005dff"/></g><g transform="translate(0 44.525)"><path d="M.919,56.157h.167V54.235a.638.638,0,0,1,.167-.418.652.652,0,0,1,.334-.334,1.059,1.059,0,0,1,.5-.084,1.111,1.111,0,0,1,.668.251.459.459,0,0,1,.251.418c0,.167.084.418.084.752v1.253h.668a.974.974,0,0,1,.585.167.714.714,0,0,1,.251.5.458.458,0,0,1-.334.5,2.1,2.1,0,0,1-.835.167H3.007v4.177c0,.167.084.251.167.418.084.251.251.251.418.251a.908.908,0,0,0,.418-.084,3.618,3.618,0,0,0,.418-.084c.167,0,.251.084.418.167a.638.638,0,0,1,.167.418c0,.334-.167.5-.5.668a3.329,3.329,0,0,1-1.42.251,2.119,2.119,0,0,1-1.337-.334,1.412,1.412,0,0,1-.585-.835A6,6,0,0,1,1,61V57.326H.835a.974.974,0,0,1-.585-.167C.084,57.243,0,57.076,0,56.908a.722.722,0,0,1,.251-.5A.822.822,0,0,1,.919,56.157Z" transform="translate(0 -53.316)" fill="#005dff"/><path d="M12.213,60.877H8.454A2.668,2.668,0,0,0,8.7,62.046a1.639,1.639,0,0,0,.752.752,1.684,1.684,0,0,0,.919.251,1.239,1.239,0,0,0,.585-.084,4.073,4.073,0,0,1,.585-.251c.167-.084.334-.251.5-.334a3.633,3.633,0,0,1,.585-.5.626.626,0,0,1,.418-.084,1.187,1.187,0,0,1,.5.167.638.638,0,0,1,.167.418,2.125,2.125,0,0,1-.167.585,4.184,4.184,0,0,1-.585.668,1.905,1.905,0,0,1-1,.5,3.9,3.9,0,0,1-1.42.251,3.8,3.8,0,0,1-2.84-1,3.93,3.93,0,0,1-1-2.84,4.864,4.864,0,0,1,.251-1.587A3.146,3.146,0,0,1,7.7,57.7a3.5,3.5,0,0,1,1.169-.752,4.864,4.864,0,0,1,1.587-.251,3.661,3.661,0,0,1,1.921.5,3.893,3.893,0,0,1,1.169,1.169,3.4,3.4,0,0,1,.418,1.5.978.978,0,0,1-.418.919C13.049,60.793,12.715,60.877,12.213,60.877ZM8.454,59.791h3.508a2.536,2.536,0,0,0-.5-1.42,1.693,1.693,0,0,0-1.169-.5,1.517,1.517,0,0,0-1.169.5A2.081,2.081,0,0,0,8.454,59.791Z" transform="translate(-1.103 -53.86)" fill="#005dff"/><path d="M17.1,62.572V54.386a1.109,1.109,0,0,1,.251-.835,1.016,1.016,0,0,1,1.337,0,1.247,1.247,0,0,1,.251.835v8.186a1.109,1.109,0,0,1-.251.835.949.949,0,0,1-.668.251.76.76,0,0,1-.668-.334C17.184,63.241,17.1,62.907,17.1,62.572Z" transform="translate(-2.815 -53.3)" fill="#005dff"/><path d="M26.913,60.877H23.238a2.668,2.668,0,0,0,.251,1.169,1.972,1.972,0,0,0,.668.752,1.684,1.684,0,0,0,.919.251,1.239,1.239,0,0,0,.585-.084,4.073,4.073,0,0,1,.585-.251c.167-.084.334-.251.5-.334a3.633,3.633,0,0,1,.585-.5.626.626,0,0,1,.418-.084,1.187,1.187,0,0,1,.5.167.638.638,0,0,1,.167.418,2.125,2.125,0,0,1-.167.585,4.184,4.184,0,0,1-.585.668,1.905,1.905,0,0,1-1,.5,3.9,3.9,0,0,1-1.42.251,3.8,3.8,0,0,1-2.84-1,3.93,3.93,0,0,1-1-2.84,4.864,4.864,0,0,1,.251-1.587A3.146,3.146,0,0,1,22.4,57.7a3.5,3.5,0,0,1,1.169-.752,4.864,4.864,0,0,1,1.587-.251,3.661,3.661,0,0,1,1.921.5,3.893,3.893,0,0,1,1.169,1.169,3.4,3.4,0,0,1,.418,1.5.978.978,0,0,1-.418.919C27.749,60.793,27.415,60.877,26.913,60.877Zm-3.676-1.086h3.425a2.536,2.536,0,0,0-.5-1.42,1.615,1.615,0,0,0-2.339,0A2.015,2.015,0,0,0,23.238,59.791Z" transform="translate(-3.523 -53.86)" fill="#005dff"/><path d="M38.468,61.93a1.347,1.347,0,0,1-.251.752,2.706,2.706,0,0,1-.668.752,3.334,3.334,0,0,1-1.086.585,4.047,4.047,0,0,1-1.5.251A3.468,3.468,0,0,1,31.2,60.51a5.472,5.472,0,0,1,.418-2.088A3.131,3.131,0,0,1,32.954,57a3.969,3.969,0,0,1,2-.5,3.463,3.463,0,0,1,1.337.251,2.889,2.889,0,0,1,1,.585,5.4,5.4,0,0,1,.668.752,1.347,1.347,0,0,1,.251.752.878.878,0,0,1-1.253.752,1.822,1.822,0,0,1-.334-.418,3.19,3.19,0,0,0-.752-.752,1.684,1.684,0,0,0-.919-.251,1.623,1.623,0,0,0-1.337.668,2.741,2.741,0,0,0-.5,1.754,4.193,4.193,0,0,0,.167,1,1.615,1.615,0,0,0,.418.752,3.633,3.633,0,0,0,.585.5,1.241,1.241,0,0,0,.752.167,1.984,1.984,0,0,0,1-.251,2.505,2.505,0,0,0,.752-.835,1.284,1.284,0,0,1,.334-.5,1.187,1.187,0,0,1,.5-.167.758.758,0,0,1,.585.251C38.384,61.512,38.468,61.679,38.468,61.93Z" transform="translate(-5.137 -53.827)" fill="#005dff"/><path d="M48.918,60.426a4.864,4.864,0,0,1-.251,1.587,3.146,3.146,0,0,1-.752,1.253,3.5,3.5,0,0,1-1.169.752,5.151,5.151,0,0,1-3.174,0,2.77,2.77,0,0,1-1.169-.835,3.856,3.856,0,0,1-.752-1.253,5.151,5.151,0,0,1,0-3.174A3.146,3.146,0,0,1,42.4,57.5a3.5,3.5,0,0,1,1.169-.752,5.151,5.151,0,0,1,3.174,0,2.832,2.832,0,0,1,1.169.752,3.146,3.146,0,0,1,.752,1.253A5.386,5.386,0,0,1,48.918,60.426Zm-1.921,0a3.177,3.177,0,0,0-.5-1.838,1.744,1.744,0,0,0-1.337-.668,2.224,2.224,0,0,0-1,.251,2.275,2.275,0,0,0-.668.835,3.181,3.181,0,0,0-.251,1.337,3.463,3.463,0,0,0,.251,1.337,1.668,1.668,0,0,0,.668.835,2.047,2.047,0,0,0,1,.334A1.623,1.623,0,0,0,46.5,62.18,2.741,2.741,0,0,0,47,60.426Z" transform="translate(-6.816 -53.827)" fill="#005dff"/><path d="M58.449,60.526v2.506a1.5,1.5,0,0,1-.251.919.814.814,0,0,1-.752.334.76.76,0,0,1-.668-.334,1.5,1.5,0,0,1-.251-.919V60.025a3.769,3.769,0,0,0-.084-1.086.949.949,0,0,0-.251-.668.822.822,0,0,0-.668-.251,1.374,1.374,0,0,0-1.253.668,4.8,4.8,0,0,0-.334,1.838v2.59a1.5,1.5,0,0,1-.251.919,1.031,1.031,0,0,1-.668.334.76.76,0,0,1-.668-.334,1.344,1.344,0,0,1-.251-.919v-5.43a1.247,1.247,0,0,1,.251-.835,1.016,1.016,0,0,1,1.337,0,1.021,1.021,0,0,1,.251.752v.167a2.549,2.549,0,0,1,1.086-.835,3.258,3.258,0,0,1,2.506,0,2.655,2.655,0,0,1,.835.835,2.96,2.96,0,0,1,1-.835,2.79,2.79,0,0,1,1.253-.251,2.277,2.277,0,0,1,1.337.334,2.013,2.013,0,0,1,.835.835,3.926,3.926,0,0,1,.251,1.587v3.676a1.5,1.5,0,0,1-.251.919.814.814,0,0,1-.752.334.76.76,0,0,1-.668-.334,1.344,1.344,0,0,1-.251-.919V59.941a3.442,3.442,0,0,0-.084-1,1.247,1.247,0,0,0-.251-.585c-.084-.167-.418-.251-.668-.251a1.347,1.347,0,0,0-.752.251,1.123,1.123,0,0,0-.5.585C58.532,59.19,58.449,59.774,58.449,60.526Z" transform="translate(-8.578 -53.843)" fill="#005dff"/><path d="M71.812,63.2v-.251l-.752.752a1.592,1.592,0,0,1-.835.418,4.193,4.193,0,0,1-1,.167,3.352,3.352,0,0,1-1.253-.251,1.494,1.494,0,0,1-.835-.752,3.455,3.455,0,0,1-.334-1.754V57.769a1.109,1.109,0,0,1,.251-.835,1.016,1.016,0,0,1,1.337,0,1.247,1.247,0,0,1,.251.835v3.007a4.083,4.083,0,0,0,.084,1.086.94.94,0,0,0,.418.668,1.021,1.021,0,0,0,.752.251,1.9,1.9,0,0,0,.919-.251,1.333,1.333,0,0,0,.585-.752,6.544,6.544,0,0,0,.167-1.754V57.686a1.247,1.247,0,0,1,.251-.835,1.016,1.016,0,0,1,1.337,0,1.247,1.247,0,0,1,.251.835V63.2a1.247,1.247,0,0,1-.251.835.822.822,0,0,1-.668.251.949.949,0,0,1-.668-.251A2.785,2.785,0,0,0,71.812,63.2Z" transform="translate(-10.999 -53.843)" fill="#005dff"/><path d="M78.987,57.537v.251a4.089,4.089,0,0,1,1.086-1,3.5,3.5,0,0,1,1.337-.334,2.451,2.451,0,0,1,1.337.334,2.427,2.427,0,0,1,.919.919l.251.752a3.442,3.442,0,0,1,.084,1v3.508a1.109,1.109,0,0,1-.251.835.949.949,0,0,1-.668.251.76.76,0,0,1-.668-.334,1.247,1.247,0,0,1-.251-.835V59.708a3.328,3.328,0,0,0-.251-1.42,1.01,1.01,0,0,0-1-.5,1.256,1.256,0,0,0-.919.334,1.532,1.532,0,0,0-.585.835,5.96,5.96,0,0,0-.167,1.587v2.339a1.109,1.109,0,0,1-.251.835.949.949,0,0,1-.668.251.76.76,0,0,1-.668-.334A1.247,1.247,0,0,1,77.4,62.8V57.286a1.247,1.247,0,0,1,.251-.835.822.822,0,0,1,.668-.251.626.626,0,0,1,.418.084c.084.084.251.167.334.334A1.913,1.913,0,0,0,78.987,57.537Z" transform="translate(-12.744 -53.777)" fill="#005dff"/><path d="M88.419,55.138a.862.862,0,1,1,.668-.251A.822.822,0,0,1,88.419,55.138Zm1,1.921v5.513a1.109,1.109,0,0,1-.251.835.949.949,0,0,1-.668.251.76.76,0,0,1-.668-.334,1.247,1.247,0,0,1-.251-.835v-5.43a1.247,1.247,0,0,1,.251-.835,1.016,1.016,0,0,1,1.337,0A1.247,1.247,0,0,1,89.421,57.059Z" transform="translate(-14.407 -53.3)" fill="#005dff"/><path d="M98.768,61.93a1.347,1.347,0,0,1-.251.752,2.706,2.706,0,0,1-.668.752,3.334,3.334,0,0,1-1.086.585,4.047,4.047,0,0,1-1.5.251A3.468,3.468,0,0,1,91.5,60.51a5.472,5.472,0,0,1,.418-2.088A3.645,3.645,0,0,1,93.254,57a3.969,3.969,0,0,1,2-.5,3.463,3.463,0,0,1,1.337.251,2.889,2.889,0,0,1,1,.585,5.405,5.405,0,0,1,.668.752,1.347,1.347,0,0,1,.251.752.878.878,0,0,1-1.253.752,1.822,1.822,0,0,1-.334-.418,3.19,3.19,0,0,0-.752-.752,1.684,1.684,0,0,0-.919-.251,1.623,1.623,0,0,0-1.337.668,2.741,2.741,0,0,0-.5,1.754,4.193,4.193,0,0,0,.167,1,1.615,1.615,0,0,0,.418.752,3.633,3.633,0,0,0,.585.5,2.439,2.439,0,0,0,.752.167,1.984,1.984,0,0,0,1-.251,2.505,2.505,0,0,0,.752-.835,1.284,1.284,0,0,1,.334-.5.514.514,0,0,1,.585-.334.758.758,0,0,1,.585.251A1.207,1.207,0,0,1,98.768,61.93Z" transform="translate(-15.065 -53.827)" fill="#005dff"/><path d="M106.879,63.2a11.7,11.7,0,0,1-1.337.835,2.7,2.7,0,0,1-1.42.251,2.79,2.79,0,0,1-1.253-.251,1.828,1.828,0,0,1-.835-.752A2.369,2.369,0,0,1,101.7,62.2a2.048,2.048,0,0,1,.5-1.337,2.957,2.957,0,0,1,1.337-.752c.084,0,.418-.084.919-.167s.919-.167,1.253-.251a7.758,7.758,0,0,0,1.086-.334,1.214,1.214,0,0,0-1.42-1.42,3.273,3.273,0,0,0-1.086.167,1.951,1.951,0,0,0-.585.585c-.167.251-.334.418-.334.5a.706.706,0,0,1-.5.167,1.207,1.207,0,0,1-.585-.167.722.722,0,0,1-.251-.5,1.605,1.605,0,0,1,.334-1,2.121,2.121,0,0,1,1.086-.752,5.557,5.557,0,0,1,1.838-.334,3.963,3.963,0,0,1,1.921.334,2.159,2.159,0,0,1,1,.919,4.544,4.544,0,0,1,.334,1.671V61.7a4.889,4.889,0,0,0,.167,1.086c.084.418.167.668.167.752a.722.722,0,0,1-.251.5.807.807,0,0,1-1.169,0C107.3,63.784,107.13,63.533,106.879,63.2Zm-.084-2.757a7.018,7.018,0,0,1-1.169.334,5.261,5.261,0,0,0-1.086.251,2.094,2.094,0,0,0-.585.334.822.822,0,0,0-.251.668,1.02,1.02,0,0,0,.334.752,1.484,1.484,0,0,0,.835.334,1.984,1.984,0,0,0,1-.251,1.294,1.294,0,0,0,.668-.668,2.856,2.856,0,0,0,.251-1.42Z" transform="translate(-16.745 -53.843)" fill="#005dff"/><path d="M118.968,61.93a1.347,1.347,0,0,1-.251.752,2.706,2.706,0,0,1-.668.752,3.334,3.334,0,0,1-1.086.585,4.047,4.047,0,0,1-1.5.251A3.468,3.468,0,0,1,111.7,60.51a5.472,5.472,0,0,1,.418-2.088A3.645,3.645,0,0,1,113.454,57a3.969,3.969,0,0,1,2-.5,3.463,3.463,0,0,1,1.337.251,2.889,2.889,0,0,1,1,.585,5.4,5.4,0,0,1,.668.752,1.347,1.347,0,0,1,.251.752.878.878,0,0,1-1.253.752,1.822,1.822,0,0,1-.334-.418,3.19,3.19,0,0,0-.752-.752,1.684,1.684,0,0,0-.919-.251,1.623,1.623,0,0,0-1.337.668,2.741,2.741,0,0,0-.5,1.754,4.193,4.193,0,0,0,.167,1,1.615,1.615,0,0,0,.418.752,3.633,3.633,0,0,0,.585.5,2.439,2.439,0,0,0,.752.167,1.984,1.984,0,0,0,1-.251,2.5,2.5,0,0,0,.752-.835,1.284,1.284,0,0,1,.334-.5,1.187,1.187,0,0,1,.5-.167.758.758,0,0,1,.585.251C118.968,61.512,118.968,61.679,118.968,61.93Z" transform="translate(-18.391 -53.827)" fill="#005dff"/><path d="M123.419,55.138a.862.862,0,1,1,.668-.251A1.111,1.111,0,0,1,123.419,55.138Zm.919,1.921v5.513a1.109,1.109,0,0,1-.251.835.949.949,0,0,1-.668.251.76.76,0,0,1-.668-.334,1.247,1.247,0,0,1-.251-.835v-5.43a1.247,1.247,0,0,1,.251-.835,1.016,1.016,0,0,1,1.337,0A1.247,1.247,0,0,1,124.338,57.059Z" transform="translate(-20.169 -53.3)" fill="#005dff"/><path d="M134.018,60.426a4.863,4.863,0,0,1-.251,1.587,3.145,3.145,0,0,1-.752,1.253,3.5,3.5,0,0,1-1.169.752,4.521,4.521,0,0,1-1.587.251,4.863,4.863,0,0,1-1.587-.251,2.77,2.77,0,0,1-1.169-.835,3.856,3.856,0,0,1-.752-1.253,5.151,5.151,0,0,1,0-3.174A3.145,3.145,0,0,1,127.5,57.5a3.5,3.5,0,0,1,1.169-.752,5.151,5.151,0,0,1,3.174,0,2.832,2.832,0,0,1,1.169.752,3.145,3.145,0,0,1,.752,1.253A5.788,5.788,0,0,1,134.018,60.426Zm-1.921,0a3.177,3.177,0,0,0-.5-1.838,1.744,1.744,0,0,0-1.337-.668,2.224,2.224,0,0,0-1,.251,2.274,2.274,0,0,0-.668.835,3.181,3.181,0,0,0-.251,1.337,3.463,3.463,0,0,0,.251,1.337,1.668,1.668,0,0,0,.668.835,2.047,2.047,0,0,0,1,.334,1.623,1.623,0,0,0,1.337-.668A2.741,2.741,0,0,0,132.1,60.426Z" transform="translate(-20.828 -53.827)" fill="#005dff"/><path d="M139.087,57.537v.251a4.089,4.089,0,0,1,1.086-1,3.5,3.5,0,0,1,1.337-.334,2.451,2.451,0,0,1,1.337.334,2.427,2.427,0,0,1,.919.919l.251.752a3.442,3.442,0,0,1,.084,1v3.508a1.109,1.109,0,0,1-.251.835.949.949,0,0,1-.668.251.76.76,0,0,1-.668-.334,1.247,1.247,0,0,1-.251-.835V59.708a3.329,3.329,0,0,0-.251-1.42,1.01,1.01,0,0,0-1-.5,1.256,1.256,0,0,0-.919.334,1.532,1.532,0,0,0-.585.835,5.96,5.96,0,0,0-.167,1.587v2.339a1.109,1.109,0,0,1-.251.835.949.949,0,0,1-.668.251.76.76,0,0,1-.668-.334,1.247,1.247,0,0,1-.251-.835V57.286a1.247,1.247,0,0,1,.251-.835.822.822,0,0,1,.668-.251.626.626,0,0,1,.418.084c.084.084.251.167.334.334A1.913,1.913,0,0,0,139.087,57.537Z" transform="translate(-22.639 -53.777)" fill="#005dff"/><path d="M152.813,60.877h-3.676a2.668,2.668,0,0,0,.251,1.169,1.972,1.972,0,0,0,.668.752,1.684,1.684,0,0,0,.919.251,1.239,1.239,0,0,0,.585-.084,4.073,4.073,0,0,1,.585-.251c.167-.084.334-.251.5-.334a3.633,3.633,0,0,1,.585-.5.626.626,0,0,1,.418-.084,1.187,1.187,0,0,1,.5.167c.167.084.167.251.167.418a2.125,2.125,0,0,1-.167.585,4.183,4.183,0,0,1-.585.668,1.905,1.905,0,0,1-1,.5,3.9,3.9,0,0,1-1.42.251,3.8,3.8,0,0,1-2.84-1,3.93,3.93,0,0,1-1-2.84,4.864,4.864,0,0,1,.251-1.587A3.146,3.146,0,0,1,148.3,57.7a3.5,3.5,0,0,1,1.169-.752,4.864,4.864,0,0,1,1.587-.251,3.661,3.661,0,0,1,1.921.5,3.893,3.893,0,0,1,1.169,1.169,3.4,3.4,0,0,1,.418,1.5.978.978,0,0,1-.418.919C153.649,60.793,153.315,60.877,152.813,60.877Zm-3.676-1.086h3.425a2.536,2.536,0,0,0-.5-1.42,1.615,1.615,0,0,0-2.339,0A2.015,2.015,0,0,0,149.138,59.791Z" transform="translate(-24.253 -53.86)" fill="#005dff"/><path d="M163.716,61.763A2.311,2.311,0,0,1,163.3,63.1a2.714,2.714,0,0,1-1.086.835,5.741,5.741,0,0,1-1.838.251,3.875,3.875,0,0,1-1.754-.334,4.048,4.048,0,0,1-1.086-.752,1.392,1.392,0,0,1-.334-.919.6.6,0,0,1,.251-.5.758.758,0,0,1,.585-.251.638.638,0,0,1,.418.167c.084.084.167.251.334.418a1.972,1.972,0,0,0,.668.752,2.09,2.09,0,0,0,1.086.251,1.5,1.5,0,0,0,.919-.251.631.631,0,0,0,.334-.585.877.877,0,0,0-.418-.752,3.1,3.1,0,0,0-1.253-.418,12.11,12.11,0,0,1-1.587-.5,3,3,0,0,1-1-.668,1.54,1.54,0,0,1-.334-1.086,1.679,1.679,0,0,1,.334-1.086,3.343,3.343,0,0,1,1-.835,4.452,4.452,0,0,1,1.587-.334,6.493,6.493,0,0,1,1.337.167,2.788,2.788,0,0,1,1,.418,1.316,1.316,0,0,1,.585.585.8.8,0,0,1,.167.585.505.505,0,0,1-.251.5.7.7,0,0,1-.585.167,1.187,1.187,0,0,1-.5-.167,1.418,1.418,0,0,1-.5-.5,2.214,2.214,0,0,0-.5-.418,1.668,1.668,0,0,0-.752-.167,1.247,1.247,0,0,0-.835.251.631.631,0,0,0-.334.585.722.722,0,0,0,.251.5,1.679,1.679,0,0,0,.668.334c.251.084.668.167,1.169.334a8.954,8.954,0,0,1,1.42.5,2.274,2.274,0,0,1,.835.668A1.064,1.064,0,0,1,163.716,61.763Z" transform="translate(-25.883 -53.827)" fill="#005dff"/></g><g transform="translate(52.51 0.003)"><path d="M77.763,1.671A19.468,19.468,0,0,0,63.729,1a1.234,1.234,0,0,0-.752,1.671h0a1.276,1.276,0,0,0,1.587.752,17.144,17.144,0,0,1,12.2.585,17.473,17.473,0,0,1,9.105,9.356,1.3,1.3,0,0,0,1.671.752h0a1.3,1.3,0,0,0,.752-1.671A20.109,20.109,0,0,0,77.763,1.671Z" transform="translate(-62.859 -0.003)" fill="#005dff"/><path d="M75.562,8.566a14.619,14.619,0,0,0-9.941-.585,1.308,1.308,0,0,0-.835,1.671v.084a1.3,1.3,0,0,0,1.5.752,12.079,12.079,0,0,1,8.186.5A11.672,11.672,0,0,1,80.741,17.5a1.268,1.268,0,0,0,1.587.668h.084a1.169,1.169,0,0,0,.668-1.587A13.9,13.9,0,0,0,75.562,8.566Z" transform="translate(-63.164 -1.217)" fill="#005dff"/><path d="M73.3,15.446a9.616,9.616,0,0,0-6.1-.5,1.292,1.292,0,0,0-.919,1.671h0a1.257,1.257,0,0,0,1.5.752,6.791,6.791,0,0,1,4.427.418,6.9,6.9,0,0,1,3.676,3.843,1.259,1.259,0,0,0,1.671.668h0a1.3,1.3,0,0,0,.752-1.671A9.506,9.506,0,0,0,73.3,15.446Z" transform="translate(-63.411 -2.416)" fill="#005dff"/></g></g></svg>