<svg xmlns="http://www.w3.org/2000/svg" width="100%" height="100%" viewBox="0 0 63.024 63.041">
  <g id="system-settings-svgrepo-com" transform="translate(-140.3 -137.4)">
    <path id="Path_21" data-name="Path 21" d="M337.219,353.984h-.078c-.34-.029-.68-.068-1.02-.107a.976.976,0,0,1,.262-1.934c.3.039.612.078.913.1a.974.974,0,0,1-.078,1.944Zm3.868-.107a.972.972,0,0,1-.136-1.934q.452-.058.9-.146a.97.97,0,0,1,.369,1.905c-.33.068-.67.126-1.011.165a.473.473,0,0,1-.126.01Zm-8.6-.943a1.042,1.042,0,0,1-.34-.058c-.321-.117-.641-.253-.952-.389a.973.973,0,0,1,.787-1.779c.282.126.564.243.855.35a.976.976,0,0,1,.573,1.254A1,1,0,0,1,332.486,352.934Zm13.264-.369a.976.976,0,0,1-.4-1.866c.282-.126.554-.253.826-.389a.969.969,0,0,1,.875,1.73c-.3.156-.612.3-.923.437A.836.836,0,0,1,345.751,352.565ZM328.23,350.63a.96.96,0,0,1-.573-.185c-.272-.2-.544-.418-.807-.632a.974.974,0,0,1,1.234-1.507c.233.194.476.389.729.564a.967.967,0,0,1,.2,1.361.985.985,0,0,1-.787.4Zm21.641-.612a.962.962,0,0,1-.748-.35.981.981,0,0,1,.126-1.371c.233-.194.466-.4.69-.6a.97.97,0,0,1,1.312,1.429c-.253.233-.505.457-.768.671A.918.918,0,0,1,349.871,350.018Zm-25.12-2.761a.975.975,0,0,1-.768-.369c-.214-.272-.418-.544-.612-.826a.971.971,0,1,1,1.594-1.108c.175.253.36.5.544.739a.972.972,0,0,1-.165,1.361.953.953,0,0,1-.593.2Zm28.395-.8a.972.972,0,0,1-.8-1.526c.175-.253.34-.505.505-.768a.975.975,0,1,1,1.662,1.021c-.175.292-.369.573-.564.855A.987.987,0,0,1,353.146,346.46Zm-30.824-3.392a.977.977,0,0,1-.9-.6c-.126-.311-.253-.642-.36-.962a.971.971,0,1,1,1.837-.632c.1.292.2.574.321.855a.967.967,0,0,1-.534,1.264A.883.883,0,0,1,322.321,343.068Zm33.02-.933a1.094,1.094,0,0,1-.311-.049.974.974,0,0,1-.6-1.235c.1-.292.194-.583.272-.875a.969.969,0,1,1,1.866.525c-.1.331-.194.661-.3.982A.991.991,0,0,1,355.342,342.135Zm-34.206-3.762a.968.968,0,0,1-.962-.865q-.058-.51-.087-1.021a.968.968,0,1,1,1.934-.107c.019.3.039.612.078.914a.964.964,0,0,1-.855,1.069A.436.436,0,0,1,321.136,338.373Zm35.129-.992h-.058a.968.968,0,0,1-.913-1.021c.019-.3.029-.612.029-.914a.972.972,0,1,1,1.943,0q0,.51-.029,1.021A.97.97,0,0,1,356.265,337.381Zm-35-3.849a.837.837,0,0,1-.155-.01.964.964,0,0,1-.8-1.118c.058-.34.117-.671.194-1.011a.97.97,0,1,1,1.895.418q-.1.452-.175.9A.986.986,0,0,1,321.262,333.532Zm34.779-.078a.969.969,0,0,1-.952-.807q-.073-.452-.175-.9a.972.972,0,1,1,1.895-.437c.078.331.146.671.194,1.011a.976.976,0,0,1-.8,1.118A.481.481,0,0,1,356.042,333.454Zm-33.351-4.549a.937.937,0,0,1-.418-.1.977.977,0,0,1-.466-1.293c.146-.311.3-.612.466-.914a.974.974,0,1,1,1.71.933c-.146.272-.282.544-.418.817A.948.948,0,0,1,322.691,328.905Zm31.893-.068a.969.969,0,0,1-.875-.554c-.126-.272-.272-.554-.418-.817a.974.974,0,1,1,1.71-.933c.165.3.321.6.466.914a.962.962,0,0,1-.457,1.293A.978.978,0,0,1,354.584,328.837Zm-29.24-4a.977.977,0,0,1-.739-1.614c.223-.253.457-.515.69-.758a.969.969,0,0,1,1.39,1.351c-.214.214-.418.447-.622.68A.883.883,0,0,1,325.344,324.842Zm26.587-.049a.983.983,0,0,1-.729-.331c-.2-.233-.408-.457-.622-.671a.969.969,0,1,1,1.39-1.351c.233.243.476.5.7.749a.978.978,0,0,1-.087,1.371A1.07,1.07,0,0,1,351.931,324.793Zm-22.943-3.14a.985.985,0,0,1-.816-.437.971.971,0,0,1,.282-1.341c.282-.185.573-.369.875-.535a.974.974,0,0,1,.982,1.682c-.262.156-.525.311-.777.486A1.115,1.115,0,0,1,328.988,321.654Zm19.28-.029a.922.922,0,0,1-.525-.156c-.253-.165-.515-.33-.787-.476a.975.975,0,0,1,.972-1.691c.292.165.593.35.875.535a.971.971,0,0,1,.282,1.341.959.959,0,0,1-.816.447Zm-14.907-2.041a.971.971,0,0,1-.292-1.9c.321-.107.661-.194.982-.282a.974.974,0,0,1,.486,1.886c-.292.078-.593.156-.884.253A1.5,1.5,0,0,1,333.361,319.583Zm10.524-.019a.767.767,0,0,1-.292-.049c-.292-.087-.583-.175-.884-.243a.971.971,0,0,1,.466-1.886c.33.087.661.175.991.272a.975.975,0,0,1-.282,1.905Zm-5.753-.787a.972.972,0,0,1-.029-1.944c.34-.01.69-.01,1.02,0a.972.972,0,0,1-.029,1.944h-.029c-.3-.01-.612-.01-.923,0Z" transform="translate(-166.839 -166.505)" fill="#fff"/>
    <path id="Path_22" data-name="Path 22" d="M175.327,200.441h-7a3.234,3.234,0,0,1-3.417-3.417v-4.59l-.043-.017a26.321,26.321,0,0,1-4.658-1.912l-.093-.051-3.374,3.2a3.18,3.18,0,0,1-2.278,1.028,3.978,3.978,0,0,1-2.082-.722c-.017-.009-.025-.017-.043-.026l-.2-.1-5.151-5.151-.051-.06a3.381,3.381,0,0,1,.1-4.785l3.238-3.238-.051-.093a28.136,28.136,0,0,1-1.9-4.624l-.017-.043h-4.59a3.274,3.274,0,0,1-3.417-3.417V165.5a3.4,3.4,0,0,1,3.315-3.57H148.3l.017-.051a28.074,28.074,0,0,1,1.912-4.573l.034-.06-3.238-3.238a3.349,3.349,0,0,1-.128-4.76l.059-.076,5.057-4.972a4.031,4.031,0,0,1,2.592-1.113,3.3,3.3,0,0,1,2.295,1.045l3.315,3.315.026-.017a22.562,22.562,0,0,1,4.6-1.929l.06-.017v-4.666a3.274,3.274,0,0,1,3.417-3.417h6.927a3.814,3.814,0,0,1,2.014.569,3.233,3.233,0,0,1,1.47,2.839v4.59l.059.017a27.256,27.256,0,0,1,4.564,1.912l.06.034,3.187-3.187A3.153,3.153,0,0,1,189.011,143a3.78,3.78,0,0,1,2.524,1.122l4.981,4.981a3.766,3.766,0,0,1,1.122,2.524A3.339,3.339,0,0,1,196.516,154l-3.238,3.238.017.025a27.873,27.873,0,0,1,1.98,4.522l.043.136h4.59a3.234,3.234,0,0,1,3.417,3.417v7a3.234,3.234,0,0,1-3.417,3.417h-4.59l-.017.043a26.061,26.061,0,0,1-1.912,4.658l-.034.06,3.238,3.238a3.349,3.349,0,0,1,1.062,2.856,3.59,3.59,0,0,1-1.062,2.04l-4.87,4.9a3.576,3.576,0,0,1-2.618,1.207,3.284,3.284,0,0,1-2.261-1.011,24.12,24.12,0,0,1-2.082-1.989c-.365-.365-.773-.782-1.215-1.232l-.043-.042-.059.034a25.7,25.7,0,0,1-4.658,1.912l-.042.017v4.59A3.232,3.232,0,0,1,175.327,200.441ZM168.323,197.211Zm-.017-.17h7.021v-7.106l2.456-.765a22.361,22.361,0,0,0,4.054-1.666l2.278-1.215,1.827,1.827c.459.459.867.875,1.232,1.249.722.739,1.479,1.5,1.7,1.657l.145.094.11.119.043.043,5.023-5.023c.017-.017.025-.034.043-.043-.009-.017-.026-.025-.043-.042l-5.015-5.015,1.215-2.278a22.905,22.905,0,0,0,1.666-4.046l.009-.017.765-2.439h7.106v-7.021h-7.106l-.748-2.4a24.273,24.273,0,0,0-1.725-3.969l-.034-.06-1.215-2.278,5.015-5.015.042-.042c-.017-.017-.025-.034-.042-.051l-4.981-4.981c-.017-.009-.025-.026-.051-.043l-5.049,5.032-2.278-1.215a24.79,24.79,0,0,0-3.944-1.657l-2.482-.62v-7.25a.348.348,0,0,0-.093-.009h-6.936v7.174l-2.439.765a19.617,19.617,0,0,0-3.927,1.632l-.06.034-2.278,1.215-5.074-5.074a.826.826,0,0,0-.128.085l-4.887,4.811c-.042.051-.068.093-.093.127l.025.026,5.015,5.015-1.215,2.278a23.573,23.573,0,0,0-1.666,3.995l-.756,2.431H143.8c-.017,0-.034.009-.051.009a.782.782,0,0,0-.017.161v6.936h7.1l.765,2.456a25.6,25.6,0,0,0,1.674,4.071l1.207,2.261-5.015,5.015-.026.026a.655.655,0,0,0,.085.127l4.692,4.692c.051.025.119.076.2.11l5.168-4.887,2.244,1.2a22.906,22.906,0,0,0,4.046,1.666l.017.009,2.439.765v7.106c-.017,0-.017.009-.017.009ZM152.378,193.956ZM149.361,186.332ZM194.332,186.306ZM149.352,151.5Zm5.066-4.887-.017.017C154.409,146.622,154.418,146.622,154.418,146.613ZM154.673,146.486ZM154.4,146.452ZM188.951,146.4ZM189.24,146.35Z" transform="translate(0 0)" fill="#fff"/>
    <path id="Path_23" data-name="Path 23" d="M418.466,412.04l-.792-.734.259-.49a9.481,9.481,0,0,0-10.859-13.581l5.674,5.617a3.329,3.329,0,0,1,.022,4.7l-2.016,2.038a3.3,3.3,0,0,1-2.347.987h-.014a3.29,3.29,0,0,1-2.34-.965L400.377,404a9.48,9.48,0,0,0,13.689,10.722l.49-.266,13.113,13.883a2.148,2.148,0,0,0,3.1.036l.994-1a2.149,2.149,0,0,0-.065-3.1l-12.962-12Z" transform="translate(-231.437 -231.186)" fill="#fff"/>
    <path id="Path_24" data-name="Path 24" d="M646.279,512.786a11,11,0,0,0,.9-6.186A10.983,10.983,0,0,1,646.279,512.786Zm14.236,13.9c.029.115.058.23.079.353A2.789,2.789,0,0,0,660.515,526.684Zm-13.984-13.66-.252-.238Zm-1.239.814.259.245Zm0,0-.792-.734Z" transform="translate(-458.264 -332.982)" fill="#fff"/>
    <path id="Path_25" data-name="Path 25" d="M415.185,406.718c-.022-.115-.05-.238-.079-.353-.022-.079-.043-.158-.072-.238a3.635,3.635,0,0,0-.943-1.433l-12.962-12-.252-.23a11,11,0,0,0,.9-6.186,10.92,10.92,0,0,0-14.892-8.54l-1.015.41,7.28,7.2a1.878,1.878,0,0,1,.014,2.664l-2.016,2.038a1.887,1.887,0,0,1-1.332.562h-.007a1.869,1.869,0,0,1-1.325-.547l-7.287-7.2-.4,1.023a10.926,10.926,0,0,0,8.7,14.8,11.053,11.053,0,0,0,6.178-.965l12.364,13.091a3.561,3.561,0,0,0,2.571,1.123h.043a3.567,3.567,0,0,0,2.556-1.066l.994-1a3.568,3.568,0,0,0,1.037-2.607A3.349,3.349,0,0,0,415.185,406.718Zm-4.558,3.781a2.121,2.121,0,0,1-1.541-.677l-13.113-13.883-.49.266a9.48,9.48,0,0,1-13.689-10.722l5.674,5.617a3.307,3.307,0,0,0,2.34.965h.014a3.315,3.315,0,0,0,2.347-.987l2.016-2.038a3.329,3.329,0,0,0-.022-4.7l-5.674-5.617A9.481,9.481,0,0,1,399.35,392.3l-.259.49.792.734.259.245,12.962,12a2.147,2.147,0,0,1,.691,1.534,2.117,2.117,0,0,1-.627,1.563l-.987.994A2.16,2.16,0,0,1,410.627,410.5Z" transform="translate(-212.854 -212.664)" fill="#fff"/>
  </g>
</svg>
